# xmcd
#
# Track frame offsets:
#	150
#	16362
#	37388
#	52394
#	68316
#	82355
#	95048
#	109113
#	126108
#	142347
#	155682
#	169848
#	185646
#	198325
#	213250
#	224946
#	239873
#	252927
#	271589
#	287841
#
# Disc length: 4019 seconds
#
# Revision: 1
# Processed by: cddbd v1.5.2PL0 Copyright (c) Steve Scherf et al.
# Submitted via: audiograbber 1.83.01
#
DISCID=4e0fb114
DTITLE=Deutschland trinkt - Feste feiern
DYEAR=1900
DGENRE=
TTITLE0=Status Quo - Rockin All Over the World
TTITLE1=Bob Geldof - The Great Song of Indifference
TTITLE2=Klaus Lage - 1000 und 1 Nacht (Zoom!)
TTITLE3=Geier Sturzflug - Die pure Lust am Leben
TTITLE4=Rex Gildo - Fiesta Mexicana
TTITLE5=Roberto Blanco - Ein bisschen Spass muss sein
TTITLE6=Costa Cordalis - Anita
TTITLE7=Cris Rabatz - Steht auf
TTITLE8=Lollies - Wahnsinn (...Hoelle, Hoelle, Hoelle) 1. Version Mix 2004
TTITLE9=Kolibris - Die Haende zum Himmel
TTITLE10=Handclubbers feat. DJ Chris DJ Alex - Drunken Sailor (...What Shall we
TTITLE10=Do?)
TTITLE11=DJ Ostkurve - Nachts (Woll'n Party)
TTITLE12=Partyschweine - Der Teufel hat den Schnaps gemacht
TTITLE13=Dr'Baelzebub - Bier fuer alle
TTITLE14=UNBEKANNTER INTERPRET - UNBEKANNTER TITEL
TTITLE15=Blockhouse Gang - Thank God I'm a Country Boy
TTITLE16=Magic Lauster - Egal, egal (dann kuess ich Dich beim naechsten Mal)
TTITLE17=Christian Koenig - (Wann liegen wir uns wieder in den Armen) Barbara
TTITLE18=Andreas Martin - Niemals zu alt
TTITLE19=Andy Grey - Party im 3-4 Takt
EXTD=CD ist durcheinender. Track 10: Wolfgang Ambros - Schifoan, statt dessen i
EXTD=st sind die Kolibris und normal weiter bis auf Track 15 ist unbekannter in
EXTD=terpret und Titel.\n\nKein wunder das die CD`s bei Tedi zum Ramschpreis ve
EXTD=rkauft wurde.
EXTT0=
EXTT1=
EXTT2=
EXTT3=
EXTT4=
EXTT5=
EXTT6=
EXTT7=
EXTT8=
EXTT9=
EXTT10=
EXTT11=
EXTT12=
EXTT13=
EXTT14=
EXTT15=
EXTT16=
EXTT17=
EXTT18=
EXTT19=
PLAYORDER=
